<svg aria-hidden="true" style="position: absolute; width: 0; height: 0; overflow: hidden;" version="1.1" xmlns="http://www.w3.org/2000/svg" xmlns:xlink="http://www.w3.org/1999/xlink">
<defs>
<symbol id="icon-close" viewBox="0 0 32 32">
<path stroke-linejoin="round" stroke-linecap="round" stroke-miterlimit="4" stroke-width="2.3529" d="M24 8l-16 16"></path>
<path stroke-linejoin="round" stroke-linecap="round" stroke-miterlimit="4" stroke-width="2.3529" d="M8 8l16 16"></path>
</symbol>
<symbol id="icon-facebook" viewBox="0 0 32 32">
<path d="M19.352 5.181c0.229 0 0.457 0 0.914 0v3.429c-0.229 0-0.686 0-1.143 0s-0.914 0-1.143 0.229c-0.229 0.229-0.229 0.457-0.229 0.99 0 0.457 0 0.762 0 1.219h2.514v2.895h-2.514v12.571h-3.886v-12.648h-2.057v-2.895h2.057v-0.99c0-1.676 0.229-2.895 0.686-3.429 0.686-0.99 2.057-1.448 4.114-1.448 0.229 0.076 0.457 0.076 0.686 0.076z"></path>
</symbol>
<symbol id="icon-instagram" viewBox="0 0 32 32">
<path d="M28.718 10.756c-0.016-1.074-0.215-2.14-0.596-3.145-0.667-1.716-2.024-3.073-3.743-3.737-0.994-0.373-2.044-0.573-3.108-0.596-1.367-0.061-1.801-0.078-5.273-0.078s-3.916 0-5.274 0.078c-1.062 0.023-2.112 0.223-3.106 0.596-1.719 0.664-3.078 2.021-3.743 3.737-0.374 0.992-0.576 2.041-0.596 3.101-0.061 1.367-0.080 1.8-0.080 5.265s0 3.909 0.080 5.265c0.021 1.061 0.222 2.109 0.596 3.104 0.667 1.714 2.024 3.071 3.744 3.735 0.989 0.386 2.040 0.605 3.106 0.639 1.369 0.061 1.803 0.079 5.274 0.079s3.917 0 5.274-0.079c1.062-0.021 2.113-0.221 3.108-0.595 1.719-0.666 3.076-2.022 3.743-3.737 0.374-0.993 0.574-2.041 0.596-3.104 0.061-1.365 0.079-1.798 0.079-5.265-0.003-3.466-0.003-3.906-0.082-5.264zM15.99 22.531c-3.631 0-6.572-2.936-6.572-6.561s2.941-6.561 6.572-6.561c3.628 0 6.572 2.936 6.572 6.561s-2.944 6.561-6.572 6.561zM22.824 10.696c-0.849 0-1.532-0.684-1.532-1.53s0.684-1.53 1.532-1.53c0.846 0 1.531 0.684 1.531 1.53s-0.685 1.53-1.531 1.53z"></path>
<path d="M15.992 19.976c2.211 0 4.004-1.793 4.004-4.004s-1.793-4.004-4.004-4.004c-2.211 0-4.004 1.793-4.004 4.004s1.793 4.004 4.004 4.004z"></path>
</symbol>
<symbol id="icon-menu" viewBox="0 0 32 32">
<path stroke-linejoin="round" stroke-linecap="round" stroke-miterlimit="4" stroke-width="2.8571" d="M1.429 10.333h29.143M1.429 21.667h29.143"></path>
</symbol>
<symbol id="icon-youtube" viewBox="0 0 32 32">
<path d="M23.847 6.476c-1.295-0.076-3.962-0.152-8-0.152h-0.533c-3.886 0-6.476 0.076-7.771 0.229-1.752 0.152-2.971 0.61-3.657 1.219-0.61 0.533-1.067 1.524-1.219 2.819-0.076 0.838-0.152 2.59-0.152 5.257v0.381c0 2.514 0.076 4.267 0.229 5.105 0.229 1.219 0.61 2.133 1.371 2.667 0.762 0.61 2.057 0.99 3.886 1.143 1.295 0.076 3.962 0.152 8 0.152h0.533c3.886 0 6.476-0.076 7.771-0.229 1.752-0.152 2.971-0.61 3.657-1.219 0.61-0.533 1.067-1.524 1.219-2.819 0.076-0.838 0.152-2.59 0.152-5.257v-0.381c0-2.514-0.076-4.267-0.229-5.105-0.229-1.219-0.61-2.133-1.371-2.667-0.762-0.61-2.057-0.99-3.886-1.143zM20.876 15.847l-8.381 5.029v-10.057l8.381 5.029z"></path>
</symbol>
</defs>
</svg>
